<?xml version="1.0" encoding="UTF-8" standalone="no"?>
<!DOCTYPE svg PUBLIC "-//W3C//DTD SVG 1.1//EN" "http://www.w3.org/Graphics/SVG/1.1/DTD/svg11.dtd">
<svg width="100%" height="100%" viewBox="0 0 640 512" version="1.1" xmlns="http://www.w3.org/2000/svg" xmlns:xlink="http://www.w3.org/1999/xlink" xml:space="preserve" xmlns:serif="http://www.serif.com/" style="fill-rule:evenodd;clip-rule:evenodd;stroke-linejoin:round;stroke-miterlimit:2;">
    <g transform="matrix(0.830371,0,0,0.808186,47.4822,55.2708)">
        <rect x="-114.265" y="-105.955" width="859.592" height="738.037" style="fill:rgb(0,51,153);"/>
    </g>
<!--! Font Awesome Free 6.6.0 by @fontawesome - https://fontawesome.com License - https://fontawesome.com/license/free (Icons: CC BY 4.0, Fonts: SIL OFL 1.1, Code: MIT License) Copyright 2024 Fonticons, Inc. -->
    <g transform="matrix(0.491692,0,0,0.491692,194.127,130.127)">
        <path d="M256,288C334.996,288 400,222.996 400,144C400,65.004 334.996,0 256,0C177.004,0 112,65.004 112,144C112,222.996 177.004,288 256,288ZM161.3,320C72.2,320 0,392.2 0,481.3C0,498.3 13.8,512 30.7,512L481.3,512C498.3,512 512,498.2 512,481.3C512,392.2 439.8,320 350.7,320L161.3,320Z" style="fill:white;fill-rule:nonzero;"/>
    </g>
</svg>
